<svg xmlns="http://www.w3.org/2000/svg" xmlns:xlink="http://www.w3.org/1999/xlink" width="500" zoomAndPan="magnify" viewBox="0 0 375 374.999991" height="500" preserveAspectRatio="xMidYMid meet" version="1.0"><defs><g/><clipPath id="c12f9f0303"><path d="M 129.980469 96.417969 L 226.730469 96.417969 L 226.730469 193.167969 L 129.980469 193.167969 Z M 129.980469 96.417969 " clip-rule="nonzero"/></clipPath><clipPath id="483c69e04a"><path d="M 148.582031 117 L 245 117 L 245 209.242188 L 148.582031 209.242188 Z M 148.582031 117 " clip-rule="nonzero"/></clipPath></defs><g clip-path="url(#c12f9f0303)"><path fill="#ff7f00" d="M 223.808594 142.726562 L 180.328125 99.246094 C 178.5625 97.507812 176.144531 96.417969 173.488281 96.417969 L 139.648438 96.417969 C 134.308594 96.417969 129.980469 100.746094 129.980469 106.085938 L 129.980469 139.925781 C 129.980469 142.605469 131.070312 145.023438 132.832031 146.765625 L 176.339844 190.269531 C 178.078125 192.011719 180.496094 193.097656 183.15625 193.097656 C 185.8125 193.097656 188.253906 192.011719 189.996094 190.269531 L 223.832031 156.433594 C 225.574219 154.667969 226.660156 152.25 226.660156 149.59375 C 226.660156 146.910156 225.574219 144.492188 223.808594 142.726562 Z M 146.902344 120.589844 C 142.886719 120.589844 139.648438 117.351562 139.648438 113.335938 C 139.648438 109.324219 142.886719 106.085938 146.902344 106.085938 C 150.914062 106.085938 154.152344 109.324219 154.152344 113.335938 C 154.152344 117.351562 150.914062 120.589844 146.902344 120.589844 Z M 146.902344 120.589844 " fill-opacity="1" fill-rule="nonzero"/></g><g clip-path="url(#483c69e04a)"><path fill="#231f20" d="M 151.507812 117.015625 C 151.65625 117.015625 151.808594 117.03125 151.953125 117.054688 C 151.957031 117.054688 151.960938 117.054688 151.964844 117.054688 L 166.679688 119.570312 C 167.617188 119.730469 168.402344 120.371094 168.746094 121.257812 C 168.746094 121.257812 168.746094 121.261719 168.746094 121.265625 L 175.578125 138.777344 L 242.230469 140.4375 C 242.996094 140.457031 243.714844 140.804688 244.214844 141.382812 C 244.714844 141.957031 244.953125 142.726562 244.859375 143.488281 L 241.179688 173.925781 C 241.027344 175.203125 239.972656 176.214844 238.691406 176.316406 L 191.171875 180.09375 L 181.757812 187.503906 C 181.746094 187.511719 181.734375 187.519531 181.722656 187.527344 C 181.710938 187.535156 181.699219 187.535156 181.691406 187.542969 C 181.679688 187.550781 181.667969 187.5625 181.65625 187.570312 C 179.9375 188.851562 179.511719 190.597656 179.753906 191.570312 C 179.894531 192.125 180.105469 192.53125 180.605469 192.84375 C 181.109375 193.15625 181.976562 193.382812 183.460938 193.296875 C 183.464844 193.296875 183.46875 193.296875 183.476562 193.296875 C 183.523438 193.296875 183.578125 193.296875 183.625 193.296875 C 183.632812 193.296875 183.640625 193.296875 183.648438 193.296875 L 240.320312 193.464844 L 240.332031 193.464844 C 241.820312 193.453125 243.074219 194.703125 243.066406 196.191406 C 243.0625 197.679688 241.804688 198.925781 240.3125 198.90625 L 240.304688 198.90625 L 236.164062 198.894531 C 237.703125 199.878906 238.734375 201.59375 238.734375 203.542969 C 238.734375 206.574219 236.25 209.058594 233.21875 209.058594 C 230.1875 209.058594 227.703125 206.574219 227.703125 203.542969 C 227.703125 201.582031 228.738281 199.851562 230.292969 198.871094 L 183.625 198.738281 C 185.304688 199.6875 186.453125 201.488281 186.453125 203.542969 C 186.453125 206.574219 183.96875 209.058594 180.9375 209.058594 C 177.90625 209.058594 175.421875 206.574219 175.421875 203.542969 C 175.421875 200.910156 177.292969 198.691406 179.769531 198.152344 C 177.425781 197.324219 175.628906 195.613281 174.511719 193 C 174.496094 192.96875 174.480469 192.9375 174.472656 192.902344 C 173.617188 189.484375 175.132812 185.769531 178.257812 183.351562 C 178.265625 183.34375 178.273438 183.335938 178.28125 183.328125 C 178.289062 183.320312 178.292969 183.308594 178.300781 183.300781 C 178.328125 183.269531 178.355469 183.238281 178.390625 183.210938 L 185.0625 177.976562 L 164.25 124.671875 L 151.046875 122.421875 C 151.042969 122.421875 151.039062 122.421875 151.039062 122.421875 C 149.652344 122.199219 148.636719 120.90625 148.757812 119.503906 C 148.875 118.097656 150.101562 116.996094 151.507812 117.015625 Z M 177.585938 142.976562 L 181.421875 152.816406 L 186.425781 152.816406 L 186.425781 143.199219 Z M 188.335938 143.25 L 188.335938 152.816406 L 197.570312 152.816406 L 197.570312 143.480469 Z M 199.480469 143.523438 L 199.480469 152.816406 L 208.71875 152.816406 L 208.71875 143.753906 Z M 210.628906 143.804688 L 210.628906 152.816406 L 219.863281 152.816406 L 219.863281 144.035156 Z M 221.773438 144.085938 L 221.773438 152.816406 L 231.007812 152.816406 L 231.007812 144.316406 Z M 232.917969 144.359375 L 232.917969 152.816406 L 239.691406 152.816406 L 240.691406 144.554688 Z M 239.460938 154.71875 L 232.917969 154.71875 L 232.917969 163.359375 L 238.417969 163.359375 Z M 231.007812 154.71875 L 221.773438 154.71875 L 221.773438 163.359375 L 231.007812 163.359375 Z M 219.863281 154.71875 L 210.628906 154.71875 L 210.628906 163.359375 L 219.863281 163.359375 Z M 208.71875 154.71875 L 199.480469 154.71875 L 199.480469 163.359375 L 208.71875 163.359375 Z M 197.570312 154.71875 L 188.335938 154.71875 L 188.335938 163.359375 L 197.570312 163.359375 Z M 186.425781 154.71875 L 182.160156 154.71875 L 185.53125 163.359375 L 186.425781 163.359375 Z M 238.183594 165.261719 L 232.917969 165.261719 L 232.917969 171.460938 L 237.480469 171.097656 Z M 231.007812 165.261719 L 221.773438 165.261719 L 221.773438 172.347656 L 231.007812 171.609375 Z M 219.863281 165.261719 L 210.625 165.261719 L 210.625 173.230469 L 219.863281 172.503906 Z M 208.714844 165.261719 L 199.480469 165.261719 L 199.480469 174.125 L 208.714844 173.386719 Z M 197.570312 165.261719 L 188.335938 165.261719 L 188.335938 170.519531 L 190.085938 175.007812 C 190.316406 174.898438 190.5625 174.832031 190.816406 174.8125 L 197.570312 174.273438 Z M 186.425781 165.261719 L 186.285156 165.261719 L 186.425781 165.648438 Z M 233.214844 200.304688 C 231.414062 200.304688 229.972656 201.742188 229.972656 203.542969 C 229.972656 205.347656 231.414062 206.777344 233.214844 206.777344 C 235.015625 206.777344 236.457031 205.347656 236.457031 203.542969 C 236.457031 201.742188 235.015625 200.304688 233.214844 200.304688 Z M 180.933594 200.304688 C 179.132812 200.304688 177.691406 201.742188 177.691406 203.542969 C 177.691406 205.347656 179.132812 206.777344 180.933594 206.777344 C 182.734375 206.777344 184.175781 205.347656 184.175781 203.542969 C 184.175781 201.742188 182.734375 200.304688 180.933594 200.304688 Z M 233.214844 201.839844 C 234.195312 201.839844 234.976562 202.621094 234.976562 203.601562 C 234.976562 204.582031 234.195312 205.355469 233.214844 205.355469 C 232.234375 205.355469 231.453125 204.582031 231.453125 203.601562 C 231.453125 202.621094 232.234375 201.839844 233.214844 201.839844 Z M 180.933594 201.839844 C 181.914062 201.839844 182.695312 202.621094 182.695312 203.601562 C 182.695312 204.582031 181.914062 205.355469 180.933594 205.355469 C 179.957031 205.355469 179.171875 204.582031 179.171875 203.601562 C 179.171875 202.621094 179.957031 201.839844 180.933594 201.839844 Z M 180.933594 201.839844 " fill-opacity="1" fill-rule="nonzero"/></g><g fill="#231f20" fill-opacity="1"><g transform="translate(106.815082, 249.737693)"><g><path d="M 15.746094 0.875 C 22.78125 0.875 27.609375 -2.167969 27.609375 -6.753906 C 27.609375 -10.5 24.636719 -12.5625 17.742188 -13.613281 L 11.410156 -14.59375 C 7.242188 -15.1875 5.496094 -16.34375 5.496094 -18.371094 C 5.496094 -21.03125 8.785156 -22.957031 13.367188 -22.957031 C 17.917969 -22.957031 21.765625 -20.925781 23.308594 -18.128906 L 25.511719 -19.84375 C 23.691406 -23.203125 18.96875 -25.546875 13.367188 -25.546875 C 7.105469 -25.546875 2.554688 -22.710938 2.554688 -18.199219 C 2.554688 -14.59375 5.039062 -12.773438 10.847656 -11.898438 L 17.324219 -10.847656 C 22.5 -10.078125 24.707031 -8.679688 24.707031 -6.507812 C 24.707031 -3.78125 21.171875 -1.714844 15.886719 -1.714844 C 9.730469 -1.714844 4.410156 -4.550781 3.113281 -8.609375 L 0.699219 -7 C 2.589844 -2.378906 8.46875 0.875 15.746094 0.875 Z M 15.746094 0.875 "/></g></g></g><g fill="#231f20" fill-opacity="1"><g transform="translate(135.123689, 249.737693)"><g><path d="M 1.75 0 L 4.65625 0 L 4.65625 -11.652344 L 25.300781 -11.652344 L 25.300781 0 L 28.207031 0 L 28.207031 -24.671875 L 25.300781 -24.671875 L 25.300781 -14.207031 L 4.65625 -14.207031 L 4.65625 -24.671875 L 1.75 -24.671875 Z M 1.75 0 "/></g></g></g><g fill="#231f20" fill-opacity="1"><g transform="translate(165.076927, 249.737693)"><g><path d="M 18.164062 0.875 C 28.101562 0.875 34.960938 -4.550781 34.960938 -12.316406 C 34.960938 -20.085938 28.101562 -25.546875 18.164062 -25.546875 C 8.257812 -25.546875 1.398438 -20.085938 1.398438 -12.316406 C 1.398438 -4.550781 8.257812 0.875 18.164062 0.875 Z M 18.164062 -1.679688 C 10.007812 -1.679688 4.304688 -6.054688 4.304688 -12.316406 C 4.304688 -18.582031 10.007812 -22.957031 18.164062 -22.957031 C 26.316406 -22.957031 32.019531 -18.582031 32.019531 -12.316406 C 32.019531 -6.054688 26.316406 -1.679688 18.164062 -1.679688 Z M 18.164062 -1.679688 "/></g></g></g><g fill="#231f20" fill-opacity="1"><g transform="translate(201.433716, 249.737693)"><g><path d="M 1.75 0 L 4.65625 0 L 4.65625 -8.957031 L 18.722656 -8.957031 C 24.707031 -8.957031 28.066406 -11.863281 28.101562 -16.796875 C 28.101562 -21.765625 24.742188 -24.671875 18.722656 -24.671875 L 1.75 -24.671875 Z M 4.65625 -11.511719 L 4.65625 -22.082031 L 18.335938 -22.082031 C 22.746094 -22.082031 25.195312 -20.121094 25.195312 -16.796875 C 25.195312 -13.472656 22.746094 -11.511719 18.335938 -11.511719 Z M 4.65625 -11.511719 "/></g></g></g><g fill="#231f20" fill-opacity="1"><g transform="translate(230.057254, 249.737693)"><g><path d="M 1.121094 -17.359375 C 3.917969 -16.65625 5.949219 -18.617188 5.949219 -22.011719 C 5.949219 -24.320312 5.074219 -25.371094 3.78125 -25.371094 C 2.695312 -25.371094 1.890625 -24.601562 1.890625 -23.480469 C 1.855469 -22.222656 3.078125 -21.207031 4.621094 -21.765625 C 4.757812 -19.667969 3.253906 -18.058594 1.503906 -18.582031 Z M 1.121094 -17.359375 "/></g></g></g><g fill="#231f20" fill-opacity="1"><g transform="translate(237.125662, 249.737693)"><g><path d="M 27.015625 0.699219 C 28.765625 0.699219 30.09375 -0.28125 31.039062 -1.644531 L 29.570312 -3.359375 C 29.011719 -2.378906 28.242188 -1.75 27.402344 -1.75 C 26.492188 -1.75 26.035156 -2.484375 25.652344 -3.394531 L 23.9375 -7.382812 C 23.339844 -8.855469 22.464844 -10.042969 21.136719 -10.777344 L 21.136719 -10.8125 C 25.652344 -11.164062 28.554688 -13.824219 28.554688 -17.53125 C 28.554688 -21.871094 25.019531 -24.671875 19.632812 -24.671875 L 1.75 -24.671875 L 1.75 0 L 4.65625 0 L 4.65625 -10.21875 L 16.972656 -10.21875 C 18.757812 -10.21875 20.15625 -8.957031 20.925781 -7.140625 L 22.992188 -2.378906 C 23.726562 -0.628906 24.953125 0.699219 27.015625 0.699219 Z M 4.65625 -12.773438 L 4.65625 -22.082031 L 19.421875 -22.082031 C 23.167969 -22.082031 25.617188 -20.226562 25.617188 -17.390625 C 25.617188 -14.628906 23.167969 -12.773438 19.421875 -12.773438 Z M 4.65625 -12.773438 "/></g></g></g></svg>